<?xml version="1.0" encoding="utf-8"?>
<!-- Generator: Adobe Illustrator 25.3.1, SVG Export Plug-In . SVG Version: 6.00 Build 0)  -->
<svg version="1.1" id="Layer_1" xmlns="http://www.w3.org/2000/svg" xmlns:xlink="http://www.w3.org/1999/xlink" x="0px" y="0px"
	 viewBox="0 0 800 500" style="enable-background:new 0 0 800 500;" xml:space="preserve">
<style type="text/css">
	.st0{fill:#0E4E87;}
	.st1{fill:#0080C2;}
	.st2{fill:#56C4AE;}
</style>
<g>
	<path class="st0" d="M73,411.2c-4-1.2-7.2-2.9-9.6-4.9l3.6-8.1c2.3,1.8,5.1,3.3,8.4,4.4c3.3,1.1,6.7,1.7,10,1.7
		c4.2,0,7.3-0.7,9.3-2c2.1-1.3,3.1-3.1,3.1-5.3c0-1.6-0.6-2.9-1.7-4c-1.1-1-2.6-1.9-4.4-2.4s-4.2-1.3-7.2-2c-4.3-1-7.7-2-10.4-3
		c-2.6-1-4.9-2.6-6.8-4.8c-1.9-2.2-2.8-5.1-2.8-8.8c0-3.1,0.8-5.9,2.5-8.4c1.7-2.5,4.2-4.5,7.6-6c3.4-1.5,7.5-2.2,12.4-2.2
		c3.4,0,6.8,0.4,10.1,1.3c3.3,0.9,6.2,2.1,8.6,3.7l-3.3,8.1c-2.5-1.4-5-2.5-7.7-3.3c-2.7-0.7-5.3-1.1-7.8-1.1
		c-4.1,0-7.2,0.7-9.2,2.1c-2,1.4-3,3.2-3,5.5c0,1.6,0.6,2.9,1.7,3.9c1.1,1,2.6,1.8,4.4,2.4c1.8,0.6,4.2,1.3,7.2,2
		c4.2,1,7.6,2,10.2,3c2.7,1,4.9,2.6,6.8,4.8c1.9,2.1,2.8,5,2.8,8.6c0,3.1-0.8,5.9-2.5,8.4s-4.2,4.5-7.6,6c-3.4,1.5-7.6,2.2-12.5,2.2
		C81.2,413.1,77,412.4,73,411.2z"/>
	<path class="st0" d="M140.4,406.5c-4.3-4.3-6.5-10.6-6.5-18.7v-31.6h10.4v31.2c0,11,4.7,16.5,14.2,16.5c9.4,0,14.2-5.5,14.2-16.5
		v-31.2H183v31.6c0,8.1-2.1,14.3-6.4,18.7c-4.3,4.3-10.3,6.5-18,6.5C150.8,413.1,144.8,410.9,140.4,406.5z"/>
	<path class="st0" d="M260.6,388.2c1.8,2.4,2.7,5.3,2.7,8.8c0,4.9-1.9,8.6-5.6,11.2c-3.7,2.6-9.2,4-16.3,4h-27.8v-56h26.2
		c6.6,0,11.7,1.3,15.3,3.9c3.6,2.6,5.4,6.1,5.4,10.7c0,2.8-0.6,5.2-1.9,7.4c-1.3,2.1-3,3.8-5.3,5
		C256.3,384.1,258.8,385.8,260.6,388.2z M224,364.4v15.4h14.7c3.6,0,6.4-0.7,8.4-2c1.9-1.3,2.9-3.2,2.9-5.7c0-2.6-1-4.5-2.9-5.8
		c-1.9-1.3-4.7-2-8.4-2H224z M252.8,396c0-5.4-4-8.1-12.1-8.1H224v16.2h16.8C248.8,404.1,252.8,401.4,252.8,396z"/>
	<path class="st0" d="M301.2,409.3c-4.6-2.5-8.2-5.9-10.8-10.3c-2.6-4.4-3.9-9.3-3.9-14.8c0-5.4,1.3-10.4,3.9-14.8
		c2.6-4.4,6.2-7.8,10.8-10.3c4.6-2.5,9.7-3.7,15.4-3.7s10.9,1.2,15.4,3.7c4.6,2.5,8.2,5.9,10.8,10.3c2.6,4.4,3.9,9.3,3.9,14.8
		c0,5.5-1.3,10.4-3.9,14.8c-2.6,4.4-6.2,7.8-10.8,10.3c-4.6,2.5-9.7,3.7-15.4,3.7S305.7,411.8,301.2,409.3z M326.7,401.4
		c3-1.7,5.3-4,7-7c1.7-3,2.6-6.4,2.6-10.1c0-3.7-0.9-7.1-2.6-10.1c-1.7-3-4.1-5.4-7-7c-3-1.7-6.3-2.5-10.1-2.5
		c-3.7,0-7.1,0.8-10.1,2.5c-3,1.7-5.3,4-7,7c-1.7,3-2.6,6.4-2.6,10.1c0,3.7,0.9,7.1,2.6,10.1c1.7,3,4.1,5.4,7,7
		c3,1.7,6.3,2.5,10.1,2.5C320.3,403.9,323.7,403.1,326.7,401.4z"/>
	<path class="st0" d="M410.4,412.3L399,395.9c-0.5,0.1-1.2,0.1-2.2,0.1h-12.6v16.3h-10.4v-56h23c4.9,0,9.1,0.8,12.7,2.4
		c3.6,1.6,6.4,3.9,8.3,6.9c1.9,3,2.9,6.5,2.9,10.6c0,4.2-1,7.8-3.1,10.9c-2.1,3-5,5.3-8.8,6.8l12.9,18.4H410.4z M406.7,367.9
		c-2.3-1.9-5.8-2.9-10.3-2.9h-12.2v22.3h12.2c4.5,0,8-1,10.3-2.9c2.3-1.9,3.5-4.7,3.5-8.3C410.2,372.6,409,369.9,406.7,367.9z"/>
	<path class="st0" d="M495.3,388.2c1.8,2.4,2.7,5.3,2.7,8.8c0,4.9-1.9,8.6-5.6,11.2c-3.7,2.6-9.2,4-16.3,4h-27.8v-56h26.2
		c6.6,0,11.7,1.3,15.3,3.9c3.6,2.6,5.4,6.1,5.4,10.7c0,2.8-0.6,5.2-1.9,7.4c-1.3,2.1-3,3.8-5.3,5C491,384.1,493.5,385.8,495.3,388.2
		z M458.7,364.4v15.4h14.7c3.6,0,6.4-0.7,8.4-2c1.9-1.3,2.9-3.2,2.9-5.7c0-2.6-1-4.5-2.9-5.8c-1.9-1.3-4.7-2-8.4-2H458.7z
		 M487.6,396c0-5.4-4-8.1-12.1-8.1h-16.8v16.2h16.8C483.5,404.1,487.6,401.4,487.6,396z"/>
	<path class="st0" d="M525.2,356.3h10.4v56h-10.4V356.3z"/>
	<path class="st0" d="M578,365.1h-18.6v-8.8H607v8.8h-18.6v47.2H578V365.1z"/>
	<path class="st0" d="M664.3,399.3h-28l-5.5,13h-10.7l25.2-56h10.2l25.3,56H670L664.3,399.3z M660.9,391.1l-10.6-24.5l-10.5,24.5
		H660.9z"/>
	<path class="st0" d="M703.9,356.3h10.4v47.2h29.3v8.8h-39.7V356.3z"/>
</g>
<g>
	<g>
		<path class="st0" d="M417.1,145.4c-11.6-5.2-24.2-5.8-35.6-2.6c-1.2,0.3-1.9,1.6-1.4,2.8l0,0l4.2,10.9l0.1,0.3
			c0.4,1,1.4,1.6,2.5,1.3c7.6-1.9,15.9-1.4,23.7,2c7.8,3.5,13.7,9.4,17.3,16.4c0.5,0.9,1.6,1.4,2.6,1l0.3-0.1l10.9-4.2l0,0
			c1.2-0.4,1.7-1.8,1.1-2.9C437.6,159.6,428.8,150.6,417.1,145.4z"/>
		<path class="st0" d="M380.5,164.7c0.9-0.5,1.3-1.6,1-2.6l-0.7-1.8l-0.8-2.1l-4.1-10.9l-0.8-2.1l-0.6-1.5c-0.4-1.2-1.8-1.7-2.9-1.1
			c-11.7,5.5-21.5,15.1-27.2,27.8c-5.7,12.6-6.2,26.3-2.6,38.7c0.3,1.2,1.6,1.8,2.8,1.4l1.5-0.6l2.1-0.8l10.9-4.2l2.1-0.8l1.8-0.7
			c1-0.4,1.5-1.4,1.3-2.5c-1.6-6.7-1.1-14,1.9-20.8C369.3,173.1,374.4,167.9,380.5,164.7z"/>
		<path class="st0" d="M449.6,177.5c-0.3-1.2-1.6-1.9-2.8-1.4l-1.5,0.6l-2.1,0.8l-10.9,4.2l-2.1,0.8l-1.8,0.7
			c-1,0.4-1.5,1.4-1.3,2.5c1.6,6.7,1.1,14-1.9,20.8c-3,6.8-8.1,12-14.2,15.2c-0.9,0.5-1.3,1.6-1,2.6l0.7,1.9l0.8,2.1l4.2,10.9
			l0.8,2.1l0.6,1.5c0.4,1.2,1.8,1.7,2.9,1.1c11.6-5.5,21.3-15.1,27-27.7C452.7,203.5,453.2,189.8,449.6,177.5z"/>
		<path class="st0" d="M380,228.2c-8.3-3.7-14.7-10.1-18.5-17.6c-0.5-1-1.6-1.4-2.6-1l-7,2.7c-1.2,0.4-1.7,1.8-1.1,2.9
			c5,10.1,13.4,18.7,24.5,23.7c11.1,5,23.1,5.6,34,2.5c1.2-0.3,1.9-1.6,1.4-2.8l-2.7-7c-0.4-1-1.5-1.6-2.5-1.3
			C397.3,232.5,388.3,232,380,228.2z"/>
	</g>
	<g>
		<path class="st0" d="M316.7,202.4c1.5,12.9,6,24.7,12.7,34.9c0.7,1,2,1.2,3,0.5l0,0l9.3-6.9l0.2-0.2c0.9-0.7,1.1-1.9,0.5-2.8
			c-5.2-8-8.6-17.2-9.8-27.3c-3.9-33.5,19.2-64.1,51.9-70c1.1-0.2,1.9-1.2,1.8-2.3l0-0.3l-1.3-11.6l0-0.1c-0.1-1.2-1.2-2-2.4-1.8
			C341.2,121.5,311.9,160.1,316.7,202.4z"/>
		<path class="st0" d="M461.8,185.7c1.2,10.4-0.1,20.6-3.5,29.8c-0.4,1,0.1,2.2,1.2,2.7l6.8,3c1.1,0.5,2.4-0.1,2.8-1.2
			c4.1-11,5.7-23.1,4.2-35.6c-4.7-41-40.8-71-81.5-68.7c-1.2,0.1-2.1,1.2-1.9,2.3l0.8,7.4c0.1,1.1,1.1,1.9,2.2,1.9
			C427.4,125.6,457.8,151,461.8,185.7z"/>
		<path class="st0" d="M468.6,227.1l-2.1-0.9l-10.7-4.6l-2.1-0.9l-1.7-0.8c-1-0.4-2.2,0-2.7,1c-8.9,17-25.8,29.5-46.3,31.9
			c-20.5,2.4-39.7-6-52.3-20.5c-0.7-0.8-2-1-2.9-0.3l-1.5,1.1l-1.8,1.3l-9.3,6.9l-1.8,1.3l-1.3,1c-1,0.7-1.1,2.1-0.4,3
			c17.5,21,44.9,33.1,74.1,29.8c29.2-3.4,53.2-21.4,65.4-45.9c0.5-1.1,0-2.4-1.1-2.9L468.6,227.1z"/>
	</g>
	<g>
		<path class="st0" d="M442,277.3l3.4,6.6c0.5,1.1,1.9,1.5,2.9,0.9c37.7-21.5,57.4-63.3,52.4-104.4c-0.1-1.2-1.3-2-2.4-1.8l-7.3,1.2
			c-1.1,0.2-1.9,1.2-1.7,2.3c4.3,36.4-13.1,73.3-46.4,92.4C441.9,275.1,441.5,276.3,442,277.3z"/>
		<path class="st0" d="M416.6,87.6c-1.2-0.2-2.3,0.6-2.5,1.8l0,0.1l-1.7,11.5l0,0.2c-0.2,1.1,0.6,2.2,1.7,2.4
			c26.4,5.3,50.2,22.1,63.4,47.8c3.8,7.4,6.5,15,8.1,22.7c0.2,1.1,1.3,1.8,2.4,1.7l0.2,0l11.5-1.9l0.1,0c1.2-0.2,2-1.3,1.7-2.5
			c-1.9-9.3-5.1-18.5-9.7-27.3C476.2,113.5,447.9,93.7,416.6,87.6z"/>
		<path class="st0" d="M345.1,94.1c-20.3,10.4-36,26.3-46.3,44.8c-0.6,1-0.2,2.4,0.9,2.9l1.5,0.8l2,1l10.4,5.2l2,1l1.6,0.8
			c1,0.5,2.2,0.1,2.8-0.9c8.1-14.3,20.3-26.4,36-34.5c15.7-8.1,32.6-10.9,49-9.3c1.1,0.1,2.1-0.7,2.3-1.8l0.3-1.8l0.3-2.2l1.7-11.5
			l0.3-2.2l0.3-1.7c0.2-1.2-0.7-2.3-1.8-2.4C387.3,80.1,365.3,83.7,345.1,94.1z"/>
		<path class="st0" d="M312.8,236.2c-13.6-26.4-13.4-56.3-2.1-81.4c0.5-1,0.1-2.2-1-2.8l-6.6-3.3c-1.1-0.5-2.4-0.1-2.9,1
			c-12.9,28.4-13.1,62.1,2.2,91.9c4.4,8.6,9.9,16.4,16.2,23.2c0.8,0.9,2.2,0.9,3,0l5.2-5.3c0.8-0.8,0.8-2.1,0-2.9
			C321.5,250.6,316.7,243.8,312.8,236.2z"/>
		<path class="st0" d="M334.7,261c-0.8-0.8-2.1-0.7-2.9,0.1l-0.2,0.2l-8.2,8.3l-0.1,0.1c-0.8,0.8-0.8,2.2,0.1,3
			c31.3,28.6,77.8,37,118.1,18.3c1.1-0.5,1.5-1.8,1-2.9l0-0.1l-5.3-10.3l-0.1-0.2c-0.5-1-1.7-1.4-2.8-0.9
			C400.3,292,361.1,285,334.7,261z"/>
	</g>
</g>
</svg>
